<svg xmlns="http://www.w3.org/2000/svg" viewBox="0 0 128 128" role="img" aria-label="envdoctor logo">
  <defs>
    <linearGradient id="gear" x1="0" y1="0" x2="0" y2="1">
      <stop offset="0%" stop-color="#94a3b8"/><stop offset="100%" stop-color="#5b6b7f"/>
    </linearGradient>
    <linearGradient id="blue" x1="0" y1="0" x2="1" y2="1">
      <stop offset="0%" stop-color="#3b82f6"/><stop offset="100%" stop-color="#1d4ed8"/>
    </linearGradient>
    <linearGradient id="green" x1="0" y1="0" x2="1" y2="1">
      <stop offset="0%" stop-color="#34d399"/><stop offset="100%" stop-color="#15803d"/>
    </linearGradient>
  </defs>

  <path d="M 114.37,56.02 L 124.76,58.58 L 124.76,69.42 L 114.37,71.98 L 111.61,82.28 L 119.33,89.68 L 113.91,99.08 L 103.63,96.10 L 96.10,103.63 L 99.08,113.91 L 89.68,119.33 L 82.28,111.61 L 71.98,114.37 L 69.42,124.76 L 58.58,124.76 L 56.02,114.37 L 45.72,111.61 L 38.32,119.33 L 28.92,113.91 L 31.90,103.63 L 24.37,96.10 L 14.09,99.08 L 8.67,89.68 L 16.39,82.28 L 13.63,71.98 L 3.24,69.42 L 3.24,58.58 L 13.63,56.02 L 16.39,45.72 L 8.67,38.32 L 14.09,28.92 L 24.37,31.90 L 31.90,24.37 L 28.92,14.09 L 38.32,8.67 L 45.72,16.39 L 56.02,13.63 L 58.58,3.24 L 69.42,3.24 L 71.98,13.63 L 82.28,16.39 L 89.68,8.67 L 99.08,14.09 L 96.10,24.37 L 103.63,31.90 L 113.91,28.92 L 119.33,38.32 L 111.61,45.72 Z" fill="url(#gear)" stroke="#475569" stroke-width="1.5" stroke-linejoin="round"/>
  <circle cx="64" cy="64" r="46" fill="#f8fafc" stroke="#475569" stroke-width="2"/>

  <!-- code panel (blue), left -->
  <g transform="rotate(-7 42 64)">
    <rect x="25" y="45" width="31" height="38" rx="5" fill="url(#blue)"/>
    <rect x="25" y="45" width="31" height="8.5" rx="5" fill="#1e3a8a" opacity="0.55"/>
    <circle cx="30" cy="49" r="1.3" fill="#fff" opacity="0.9"/>
    <circle cx="34.5" cy="49" r="1.3" fill="#fff" opacity="0.9"/>
    <circle cx="39" cy="49" r="1.3" fill="#fff" opacity="0.9"/>
    <path d="M39 61 L34.5 67 L39 73 M46 61 L50.5 67 L46 73" fill="none" stroke="#fff"
          stroke-width="2.5" stroke-linecap="round" stroke-linejoin="round"/>
  </g>

  <!-- .env document (green), right -->
  <g transform="rotate(7 84 64)">
    <path d="M70 45 h18 l8 8 v30 h-26 z" fill="url(#green)"/>
    <path d="M88 45 v8 h8" fill="#0f3d22" opacity="0.55"/>
    <rect x="75" y="61" width="15" height="2.3" rx="1.1" fill="#fff" opacity="0.5"/>
    <text x="83" y="79" font-family="ui-monospace, Menlo, Consolas, monospace"
          font-size="11" font-weight="700" fill="#fff" text-anchor="middle">.env</text>
  </g>

  <!-- two-way sync arrows in the gap -->
  <g fill="none" stroke-width="3.2" stroke-linecap="round" stroke-linejoin="round">
    <path d="M56 56 a12 12 0 0 1 15 1.5" stroke="#1d4ed8"/>
    <path d="M71 57.5 l-1.4 -5 M71 57.5 l-5 1.4" stroke="#1d4ed8"/>
    <path d="M72 72 a12 12 0 0 1 -15 -1.5" stroke="#15803d"/>
    <path d="M57 70.5 l1.4 5 M57 70.5 l5 -1.4" stroke="#15803d"/>
  </g>
</svg>
